<?xml version="1.0" encoding="iso-8859-1"?>
<!-- Generator: Adobe Illustrator 19.0.0, SVG Export Plug-In . SVG Version: 6.00 Build 0)  -->
<svg version="1.1" id="Layer_1" xmlns="http://www.w3.org/2000/svg" xmlns:xlink="http://www.w3.org/1999/xlink" x="0px" y="0px"
	 viewBox="0 0 512 512" style="enable-background:new 0 0 512 512;" xml:space="preserve">
<circle style="fill:#FFEDB5;" cx="256" cy="256" r="256"/>
<path style="fill:#FEE187;" d="M509.366,292.728L353.608,136.645l-8.108,29.279l-77.217-78.005l-20.614,114.64l-65.15-66.012
	L56.889,312.889L256,512C384.912,512,491.551,416.709,509.366,292.728z"/>
<path style="fill:#D48B07;" d="M155.443,140.419l-98.554,172.47h227.556l-98.554-172.47
	C179.159,128.64,162.175,128.64,155.443,140.419z"/>
<path style="fill:#FF5419;" d="M326.11,140.419l-98.554,172.47h227.556l-98.554-172.47
	C349.825,128.64,332.841,128.64,326.11,140.419z"/>
<path style="fill:#FFC61B;" d="M239.978,92.939l-97.756,219.95h227.556l-97.756-219.95
	C265.852,79.057,246.148,79.057,239.978,92.939z"/>
<path style="fill:#D48B07;" d="M272.022,92.939c-3.039-6.839-9.363-10.292-15.734-10.393v230.343h113.49L272.022,92.939z"/>
<path style="fill:#273B7A;" d="M105.158,226.982v114.926c0,15.393,12.478,27.87,27.87,27.87h245.943
	c15.393,0,27.87-12.478,27.87-27.87V226.982c0-15.393-12.478-27.87-27.87-27.87H133.029
	C117.636,199.111,105.158,211.589,105.158,226.982z"/>
<path style="fill:#121149;" d="M378.971,199.111H256.288v170.667h122.683c15.393,0,27.87-12.478,27.87-27.87V226.982
	C406.842,211.589,394.364,199.111,378.971,199.111z"/>
<rect x="142.222" y="199.111" style="fill:#366695;" width="227.556" height="170.667"/>
<rect x="256.293" y="199.111" style="fill:#273B7A;" width="113.49" height="170.667"/>
<path style="fill:#D48B07;" d="M205.226,288.465l-49.14,71.561h114.188l-49.14-71.561C217.3,282.883,209.06,282.883,205.226,288.465
	z"/>
<path style="fill:#FF5419;" d="M290.868,288.465l-49.14,71.561h114.188l-49.14-71.561C302.94,282.883,294.7,282.883,290.868,288.465
	z"/>
<path style="fill:#FFC61B;" d="M247.489,269.06l-48.583,90.964h114.188l-48.583-90.964
	C260.877,262.258,251.123,262.258,247.489,269.06z"/>
<path style="fill:#D48B07;" d="M264.511,269.06c-1.765-3.305-4.973-4.989-8.223-5.084v96.047h56.806L264.511,269.06z"/>
<g>
	<rect x="266.343" y="224.108" style="fill:#FFEDB5;" width="93.091" height="10.343"/>
	<rect x="337.024" y="249.104" style="fill:#FFEDB5;" width="22.411" height="6.896"/>
	<polygon style="fill:#FFEDB5;" points="288.754,249.104 280.997,249.104 280.997,241.347 274.101,241.347 274.101,249.104 
		266.343,249.104 266.343,256 274.101,256 274.101,263.758 280.997,263.758 280.997,256 288.754,256 	"/>
</g>
<g>
</g>
<g>
</g>
<g>
</g>
<g>
</g>
<g>
</g>
<g>
</g>
<g>
</g>
<g>
</g>
<g>
</g>
<g>
</g>
<g>
</g>
<g>
</g>
<g>
</g>
<g>
</g>
<g>
</g>
</svg>
